<svg xmlns="http://www.w3.org/2000/svg" width="880" height="492" viewBox="0 0 880 492" font-family="Inter,system-ui,sans-serif">
<defs><linearGradient id="agrad" x1="0" x2="0" y1="0" y2="1"><stop offset="0%" stop-color="#3FCF8E"/><stop offset="100%" stop-color="#1F6B49"/></linearGradient><linearGradient id="dgrad" x1="0" x2="0" y1="0" y2="1"><stop offset="0%" stop-color="#FF6973"/><stop offset="100%" stop-color="#8A2F36"/></linearGradient><linearGradient id="mgrad" x1="0" x2="0" y1="0" y2="1"><stop offset="0%" stop-color="#29B5E8"/><stop offset="100%" stop-color="#1A5F8E"/></linearGradient><linearGradient id="topgrad2" x1="0" x2="1" y1="0" y2="0"><stop offset="0%" stop-color="#29B5E8"/><stop offset="50%" stop-color="#7B42BC"/><stop offset="100%" stop-color="#3FCF8E"/></linearGradient></defs>
<rect width="880" height="492" fill="#0D1117" rx="12"/>
<rect x="0" y="0" width="880" height="4" fill="url(#topgrad2)" rx="12"/>
<text x="40" y="44" fill="#29B5E8" font-size="22" font-weight="700">Lines Modified Per Month</text>
<text x="40" y="84" font-size="13" fill="#C9D1D9"><tspan fill="#29B5E8" font-weight="700">5.5M</tspan><tspan fill="#8B949E"> modified &#183; </tspan><tspan fill="#3FCF8E" font-weight="700">+4.3M</tspan><tspan fill="#8B949E"> added &#183; </tspan><tspan fill="#FF6973" font-weight="700">-1.2M</tspan><tspan fill="#8B949E"> removed &#183; </tspan><tspan fill="#29B5E8" font-weight="700">+3.2M</tspan><tspan fill="#8B949E"> net</tspan></text>
<g transform="translate(660, 70)"><rect x="0" y="0" width="12" height="12" rx="3" fill="url(#agrad)"/><text x="18" y="10" fill="#C9D1D9" font-size="11">Added</text><rect x="74" y="0" width="12" height="12" rx="3" fill="url(#dgrad)"/><text x="92" y="10" fill="#C9D1D9" font-size="11">Removed</text><text x="160" y="10" fill="#29B5E8" font-size="11" font-weight="700">Modified</text><text x="220" y="10" fill="#8B949E" font-size="10">labels above bars</text></g>
<rect x="40" y="166" width="26" height="270" rx="3" fill="url(#agrad)"/>
<rect x="70" y="434" width="26" height="2" rx="3" fill="url(#dgrad)"/>
<text x="68.0" y="456" fill="#8B949E" font-size="11" text-anchor="middle">Jun '25</text>
<text x="68.0" y="160" fill="#29B5E8" font-size="11" text-anchor="middle" font-weight="700">1M</text>
<rect x="106" y="325" width="26" height="111" rx="3" fill="url(#agrad)"/>
<rect x="136" y="389" width="26" height="47" rx="3" fill="url(#dgrad)"/>
<text x="134.0" y="456" fill="#8B949E" font-size="11" text-anchor="middle">Jul '25</text>
<text x="134.0" y="319" fill="#29B5E8" font-size="11" text-anchor="middle" font-weight="700">598k</text>
<rect x="172" y="405" width="26" height="31" rx="3" fill="url(#agrad)"/>
<rect x="202" y="409" width="26" height="27" rx="3" fill="url(#dgrad)"/>
<text x="200.0" y="456" fill="#8B949E" font-size="11" text-anchor="middle">Aug '25</text>
<text x="200.0" y="399" fill="#29B5E8" font-size="11" text-anchor="middle" font-weight="700">222.1k</text>
<rect x="238" y="428" width="26" height="8" rx="3" fill="url(#agrad)"/>
<rect x="268" y="431" width="26" height="5" rx="3" fill="url(#dgrad)"/>
<text x="266.0" y="456" fill="#8B949E" font-size="11" text-anchor="middle">Sep '25</text>
<text x="266.0" y="422" fill="#29B5E8" font-size="11" text-anchor="middle" font-weight="700">51.4k</text>
<rect x="304" y="433" width="26" height="3" rx="3" fill="url(#agrad)"/>
<rect x="334" y="434" width="26" height="2" rx="3" fill="url(#dgrad)"/>
<text x="332.0" y="456" fill="#8B949E" font-size="11" text-anchor="middle">Oct '25</text>
<text x="332.0" y="427" fill="#29B5E8" font-size="11" text-anchor="middle" font-weight="700">13.6k</text>
<rect x="370" y="431" width="26" height="5" rx="3" fill="url(#agrad)"/>
<rect x="400" y="434" width="26" height="2" rx="3" fill="url(#dgrad)"/>
<text x="398.0" y="456" fill="#8B949E" font-size="11" text-anchor="middle">Nov '25</text>
<text x="398.0" y="425" fill="#29B5E8" font-size="11" text-anchor="middle" font-weight="700">19.3k</text>
<rect x="436" y="397" width="26" height="39" rx="3" fill="url(#agrad)"/>
<rect x="466" y="422" width="26" height="14" rx="3" fill="url(#dgrad)"/>
<text x="464.0" y="456" fill="#8B949E" font-size="11" text-anchor="middle">Dec '25</text>
<text x="464.0" y="391" fill="#29B5E8" font-size="11" text-anchor="middle" font-weight="700">203.3k</text>
<rect x="502" y="361" width="26" height="75" rx="3" fill="url(#agrad)"/>
<rect x="532" y="429" width="26" height="7" rx="3" fill="url(#dgrad)"/>
<text x="530.0" y="456" fill="#8B949E" font-size="11" text-anchor="middle">Jan '26</text>
<text x="530.0" y="355" fill="#29B5E8" font-size="11" text-anchor="middle" font-weight="700">310.3k</text>
<rect x="568" y="377" width="26" height="59" rx="3" fill="url(#agrad)"/>
<rect x="598" y="419" width="26" height="17" rx="3" fill="url(#dgrad)"/>
<text x="596.0" y="456" fill="#8B949E" font-size="11" text-anchor="middle">Feb '26</text>
<text x="596.0" y="371" fill="#29B5E8" font-size="11" text-anchor="middle" font-weight="700">288.2k</text>
<rect x="634" y="240" width="26" height="196" rx="3" fill="url(#agrad)"/>
<rect x="664" y="299" width="26" height="137" rx="3" fill="url(#dgrad)"/>
<text x="662.0" y="456" fill="#8B949E" font-size="11" text-anchor="middle">Mar '26</text>
<text x="662.0" y="234" fill="#29B5E8" font-size="11" text-anchor="middle" font-weight="700">1.3M</text>
<rect x="700" y="116" width="26" height="320" rx="3" fill="url(#agrad)"/>
<rect x="730" y="393" width="26" height="43" rx="3" fill="url(#dgrad)"/>
<text x="728.0" y="456" fill="#8B949E" font-size="11" text-anchor="middle">Apr '26</text>
<text x="728.0" y="110" fill="#29B5E8" font-size="11" text-anchor="middle" font-weight="700">1.4M</text>
<rect x="766" y="412" width="26" height="24" rx="3" fill="url(#agrad)"/>
<rect x="796" y="430" width="26" height="6" rx="3" fill="url(#dgrad)"/>
<text x="794.0" y="456" fill="#8B949E" font-size="11" text-anchor="middle">May '26</text>
<text x="794.0" y="406" fill="#29B5E8" font-size="11" text-anchor="middle" font-weight="700">115.8k</text>
<line x1="32" y1="436" x2="856" y2="436" stroke="#30363D" stroke-width="1"/>
<text x="856" y="476" fill="#8B949E" font-size="10" text-anchor="end">updated 2026-05-19</text>
</svg>