<svg xmlns="http://www.w3.org/2000/svg" viewBox="0 0 440 368" font-family="Inter,system-ui,sans-serif">
<defs><linearGradient id="agrad" x1="0" x2="0" y1="0" y2="1"><stop offset="0%" stop-color="#3FCF8E"/><stop offset="100%" stop-color="#1F6B49"/></linearGradient><linearGradient id="dgrad" x1="0" x2="0" y1="0" y2="1"><stop offset="0%" stop-color="#FF6973"/><stop offset="100%" stop-color="#8A2F36"/></linearGradient><linearGradient id="mgrad" x1="0" x2="0" y1="0" y2="1"><stop offset="0%" stop-color="#29B5E8"/><stop offset="100%" stop-color="#1A5F8E"/></linearGradient><linearGradient id="topgrad2" x1="0" x2="1" y1="0" y2="0"><stop offset="0%" stop-color="#29B5E8"><animate attributeName="stop-color" values="#29B5E8;#7B42BC;#3FCF8E;#29B5E8" dur="30s" repeatCount="indefinite"/></stop><stop offset="50%" stop-color="#7B42BC"><animate attributeName="stop-color" values="#7B42BC;#3FCF8E;#29B5E8;#7B42BC" dur="30s" repeatCount="indefinite"/></stop><stop offset="100%" stop-color="#3FCF8E"><animate attributeName="stop-color" values="#3FCF8E;#29B5E8;#7B42BC;#3FCF8E" dur="30s" repeatCount="indefinite"/></stop></linearGradient></defs>
<rect width="440" height="368" fill="#0D1117" rx="12"/>
<rect x="0" y="0" width="440" height="4" fill="url(#topgrad2)" rx="12"/>
<text x="24" y="44" fill="#29B5E8" font-size="17" font-weight="700">Lines Modified Per Month</text>
<text x="24" y="68" font-size="10" fill="#C9D1D9"><tspan fill="#29B5E8" font-weight="700">7.4M</tspan><tspan fill="#8B949E"> modified &#183; </tspan><tspan fill="#3FCF8E" font-weight="700">+6.1M</tspan><tspan fill="#8B949E"> &#183; </tspan><tspan fill="#FF6973" font-weight="700">-1.2M</tspan><tspan fill="#8B949E"> &#183; net </tspan><tspan fill="#29B5E8" font-weight="700">+4.9M</tspan></text>
<g transform="translate(24, 92)"><rect x="0" y="0" width="11" height="11" rx="3" fill="url(#agrad)"/><text x="16" y="9" fill="#C9D1D9" font-size="10">Added</text><rect x="62" y="0" width="11" height="11" rx="3" fill="url(#mgrad)"/><text x="78" y="9" fill="#C9D1D9" font-size="10">Modified</text><rect x="142" y="0" width="11" height="11" rx="3" fill="url(#dgrad)"/><text x="158" y="9" fill="#C9D1D9" font-size="10">Removed</text></g>
<rect x="24" y="308" width="22" height="16" fill="url(#agrad)"/>
<rect x="24" y="284" width="22" height="24" fill="url(#mgrad)"/>
<text x="35.0" y="342" fill="#8B949E" font-size="8" text-anchor="middle">Jul</text>
<text x="35.0" y="277" fill="#29B5E8" font-size="9" text-anchor="middle" font-weight="700">596.8k</text>
<rect x="56" y="323" width="22" height="1" fill="url(#agrad)"/>
<rect x="56" y="309" width="22" height="14" fill="url(#mgrad)"/>
<text x="67.0" y="342" fill="#8B949E" font-size="8" text-anchor="middle">Aug</text>
<text x="67.0" y="302" fill="#29B5E8" font-size="9" text-anchor="middle" font-weight="700">222.3k</text>
<rect x="88" y="322" width="22" height="2" fill="url(#mgrad)"/>
<text x="99.0" y="342" fill="#8B949E" font-size="8" text-anchor="middle">Sep</text>
<text x="99.0" y="315" fill="#29B5E8" font-size="9" text-anchor="middle" font-weight="700">51.4k</text>
<text x="131.0" y="342" fill="#8B949E" font-size="8" text-anchor="middle">Oct</text>
<text x="131.0" y="317" fill="#29B5E8" font-size="9" text-anchor="middle" font-weight="700">13.6k</text>
<rect x="152" y="323" width="22" height="1" fill="url(#agrad)"/>
<text x="163.0" y="342" fill="#8B949E" font-size="8" text-anchor="middle">Nov</text>
<text x="163.0" y="316" fill="#29B5E8" font-size="9" text-anchor="middle" font-weight="700">19.3k</text>
<rect x="184" y="318" width="22" height="6" fill="url(#agrad)"/>
<rect x="184" y="311" width="22" height="7" fill="url(#mgrad)"/>
<text x="195.0" y="342" fill="#8B949E" font-size="8" text-anchor="middle">Dec</text>
<text x="195.0" y="304" fill="#29B5E8" font-size="9" text-anchor="middle" font-weight="700">203.3k</text>
<rect x="216" y="307" width="22" height="17" fill="url(#agrad)"/>
<rect x="216" y="304" width="22" height="3" fill="url(#mgrad)"/>
<text x="227.0" y="342" fill="#8B949E" font-size="8" text-anchor="middle">Jan</text>
<text x="227.0" y="297" fill="#29B5E8" font-size="9" text-anchor="middle" font-weight="700">310.3k</text>
<rect x="248" y="314" width="22" height="10" fill="url(#agrad)"/>
<rect x="248" y="305" width="22" height="9" fill="url(#mgrad)"/>
<text x="259.0" y="342" fill="#8B949E" font-size="8" text-anchor="middle">Feb</text>
<text x="259.0" y="298" fill="#29B5E8" font-size="9" text-anchor="middle" font-weight="700">287.6k</text>
<rect x="280" y="309" width="22" height="15" fill="url(#agrad)"/>
<rect x="280" y="238" width="22" height="71" fill="url(#mgrad)"/>
<text x="291.0" y="342" fill="#8B949E" font-size="8" text-anchor="middle">Mar</text>
<text x="291.0" y="231" fill="#29B5E8" font-size="9" text-anchor="middle" font-weight="700">1.3M</text>
<rect x="312" y="253" width="22" height="71" fill="url(#agrad)"/>
<rect x="312" y="231" width="22" height="22" fill="url(#mgrad)"/>
<text x="323.0" y="342" fill="#8B949E" font-size="8" text-anchor="middle">Apr</text>
<text x="323.0" y="224" fill="#29B5E8" font-size="9" text-anchor="middle" font-weight="700">1.4M</text>
<rect x="344" y="314" width="22" height="10" fill="url(#agrad)"/>
<rect x="344" y="305" width="22" height="9" fill="url(#mgrad)"/>
<text x="355.0" y="342" fill="#8B949E" font-size="8" text-anchor="middle">May</text>
<text x="355.0" y="298" fill="#29B5E8" font-size="9" text-anchor="middle" font-weight="700">298.3k</text>
<rect x="376" y="141" width="22" height="183" fill="url(#agrad)"/>
<rect x="376" y="135" width="22" height="6" fill="url(#mgrad)"/>
<text x="387.0" y="342" fill="#8B949E" font-size="8" text-anchor="middle">Jun</text>
<text x="387.0" y="128" fill="#29B5E8" font-size="9" text-anchor="middle" font-weight="700">2.8M</text>
<line x1="18" y1="324" x2="416" y2="324" stroke="#30363D" stroke-width="1"/>
<text x="416" y="354" fill="#6E7681" font-size="9" text-anchor="end">L12M &#183; 2026-06-29</text>
</svg>