<svg xmlns="http://www.w3.org/2000/svg" width="480" height="234" viewBox="0 0 480 234" font-family="Inter,system-ui,sans-serif">

<defs>
  <linearGradient id="cgrad" x1="0" x2="0" y1="0" y2="1">
    <stop offset="0%" stop-color="#29B5E8"/><stop offset="100%" stop-color="#1A5F8E"/>
  </linearGradient>
  <linearGradient id="agrad" x1="0" x2="0" y1="0" y2="1">
    <stop offset="0%" stop-color="#3FCF8E"/><stop offset="100%" stop-color="#1F6B49"/>
  </linearGradient>
  <linearGradient id="dgrad" x1="0" x2="0" y1="0" y2="1">
    <stop offset="0%" stop-color="#FF6973"/><stop offset="100%" stop-color="#8A2F36"/>
  </linearGradient>
  <linearGradient id="topgrad" x1="0" x2="1" y1="0" y2="0">
    <stop offset="0%" stop-color="#29B5E8">
      <animate attributeName="stop-color" values="#29B5E8;#7B42BC;#3FCF8E;#29B5E8" dur="30s" repeatCount="indefinite"/>
    </stop>
    <stop offset="50%" stop-color="#7B42BC">
      <animate attributeName="stop-color" values="#7B42BC;#3FCF8E;#29B5E8;#7B42BC" dur="30s" repeatCount="indefinite"/>
    </stop>
    <stop offset="100%" stop-color="#3FCF8E">
      <animate attributeName="stop-color" values="#3FCF8E;#29B5E8;#7B42BC;#3FCF8E" dur="30s" repeatCount="indefinite"/>
    </stop>
  </linearGradient>
</defs>

<rect width="480" height="234" fill="#0D1117" rx="14"/>
<rect x="0" y="0" width="480" height="3" fill="url(#topgrad)" rx="14"/>
<text x="24" y="36" fill="#29B5E8" font-size="17" font-weight="700">Lines Modified per Month</text>
<text x="24" y="58" font-size="12" fill="#8B949E"><tspan fill="#C9D1D9" font-weight="700">5.5M</tspan> modified &#183; <tspan fill="#3FCF8E" font-weight="700">+4.3M</tspan> &#183; <tspan fill="#FF6973" font-weight="700">-1.2M</tspan></text>
<text x="24" y="76" font-size="11" fill="#8B949E">net <tspan fill="#29B5E8" font-weight="700">+3.2M</tspan></text>
<rect x="24" y="117" width="22" height="81" fill="url(#agrad)"/>
<rect x="24" y="117" width="22" height="0" rx="3" fill="url(#dgrad)"/>
<text x="35.0" y="212" fill="#8B949E" font-size="9" text-anchor="middle">Jun</text>
<rect x="61" y="165" width="22" height="33" fill="url(#agrad)"/>
<rect x="61" y="151" width="22" height="14" rx="3" fill="url(#dgrad)"/>
<text x="72.0" y="212" fill="#8B949E" font-size="9" text-anchor="middle">Jul</text>
<rect x="98" y="189" width="22" height="9" fill="url(#agrad)"/>
<rect x="98" y="181" width="22" height="8" rx="3" fill="url(#dgrad)"/>
<text x="109.0" y="212" fill="#8B949E" font-size="9" text-anchor="middle">Aug</text>
<rect x="135" y="196" width="22" height="2" fill="url(#agrad)"/>
<rect x="135" y="195" width="22" height="1" rx="3" fill="url(#dgrad)"/>
<text x="146.0" y="212" fill="#8B949E" font-size="9" text-anchor="middle">Sep</text>
<rect x="172" y="197" width="22" height="1" fill="url(#agrad)"/>
<rect x="172" y="197" width="22" height="0" rx="3" fill="url(#dgrad)"/>
<text x="183.0" y="212" fill="#8B949E" font-size="9" text-anchor="middle">Oct</text>
<rect x="209" y="197" width="22" height="1" fill="url(#agrad)"/>
<rect x="209" y="197" width="22" height="0" rx="3" fill="url(#dgrad)"/>
<text x="220.0" y="212" fill="#8B949E" font-size="9" text-anchor="middle">Nov</text>
<rect x="246" y="187" width="22" height="11" fill="url(#agrad)"/>
<rect x="246" y="183" width="22" height="4" rx="3" fill="url(#dgrad)"/>
<text x="257.0" y="212" fill="#8B949E" font-size="9" text-anchor="middle">Dec</text>
<rect x="283" y="176" width="22" height="22" fill="url(#agrad)"/>
<rect x="283" y="174" width="22" height="2" rx="3" fill="url(#dgrad)"/>
<text x="294.0" y="212" fill="#8B949E" font-size="9" text-anchor="middle">Jan</text>
<rect x="320" y="181" width="22" height="17" fill="url(#agrad)"/>
<rect x="320" y="176" width="22" height="5" rx="3" fill="url(#dgrad)"/>
<text x="331.0" y="212" fill="#8B949E" font-size="9" text-anchor="middle">Feb</text>
<rect x="357" y="139" width="22" height="59" fill="url(#agrad)"/>
<rect x="357" y="98" width="22" height="41" rx="3" fill="url(#dgrad)"/>
<text x="368.0" y="212" fill="#8B949E" font-size="9" text-anchor="middle">Mar</text>
<rect x="394" y="102" width="22" height="96" fill="url(#agrad)"/>
<rect x="394" y="89" width="22" height="13" rx="3" fill="url(#dgrad)"/>
<text x="405.0" y="212" fill="#8B949E" font-size="9" text-anchor="middle">Apr</text>
<rect x="431" y="191" width="22" height="7" fill="url(#agrad)"/>
<rect x="431" y="190" width="22" height="1" rx="3" fill="url(#dgrad)"/>
<text x="442.0" y="212" fill="#8B949E" font-size="9" text-anchor="middle">May</text>
<text x="456" y="222" fill="#6E7681" font-size="9" text-anchor="end">L12M &#183; 2026-05-20</text>
</svg>