<svg xmlns="http://www.w3.org/2000/svg" viewBox="0 0 880 496" font-family="Inter,system-ui,sans-serif">
<defs><linearGradient id="agrad" x1="0" x2="0" y1="0" y2="1"><stop offset="0%" stop-color="#3FCF8E"/><stop offset="100%" stop-color="#1F6B49"/></linearGradient><linearGradient id="dgrad" x1="0" x2="0" y1="0" y2="1"><stop offset="0%" stop-color="#FF6973"/><stop offset="100%" stop-color="#8A2F36"/></linearGradient><linearGradient id="mgrad" x1="0" x2="0" y1="0" y2="1"><stop offset="0%" stop-color="#29B5E8"/><stop offset="100%" stop-color="#1A5F8E"/></linearGradient><linearGradient id="topgrad2" x1="0" x2="1" y1="0" y2="0"><stop offset="0%" stop-color="#29B5E8"><animate attributeName="stop-color" values="#29B5E8;#7B42BC;#3FCF8E;#29B5E8" dur="30s" repeatCount="indefinite"/></stop><stop offset="50%" stop-color="#7B42BC"><animate attributeName="stop-color" values="#7B42BC;#3FCF8E;#29B5E8;#7B42BC" dur="30s" repeatCount="indefinite"/></stop><stop offset="100%" stop-color="#3FCF8E"><animate attributeName="stop-color" values="#3FCF8E;#29B5E8;#7B42BC;#3FCF8E" dur="30s" repeatCount="indefinite"/></stop></linearGradient></defs>
<rect width="880" height="496" fill="#0D1117" rx="12"/>
<rect x="0" y="0" width="880" height="4" fill="url(#topgrad2)" rx="12"/>
<text x="40" y="44" fill="#29B5E8" font-size="22" font-weight="700">Lines Modified Per Month</text>
<text x="40" y="76" font-size="13" fill="#C9D1D9"><tspan fill="#29B5E8" font-weight="700">7.4M</tspan><tspan fill="#8B949E"> modified &#183; </tspan><tspan fill="#3FCF8E" font-weight="700">+6.1M</tspan><tspan fill="#8B949E"> &#183; </tspan><tspan fill="#FF6973" font-weight="700">-1.2M</tspan><tspan fill="#8B949E"> &#183; net </tspan><tspan fill="#29B5E8" font-weight="700">+4.9M</tspan></text>
<g transform="translate(40, 104)"><rect x="0" y="0" width="11" height="11" rx="3" fill="url(#agrad)"/><text x="16" y="9" fill="#C9D1D9" font-size="13">Added</text><rect x="62" y="0" width="11" height="11" rx="3" fill="url(#mgrad)"/><text x="78" y="9" fill="#C9D1D9" font-size="13">Modified</text><rect x="142" y="0" width="11" height="11" rx="3" fill="url(#dgrad)"/><text x="158" y="9" fill="#C9D1D9" font-size="13">Removed</text></g>
<rect x="40" y="414" width="56" height="26" fill="url(#agrad)"/>
<rect x="40" y="375" width="56" height="39" fill="url(#mgrad)"/>
<text x="68.0" y="458" fill="#8B949E" font-size="11" text-anchor="middle">Jul</text>
<text x="68.0" y="368" fill="#29B5E8" font-size="12" text-anchor="middle" font-weight="700">596.8k</text>
<rect x="106" y="438" width="56" height="2" fill="url(#agrad)"/>
<rect x="106" y="416" width="56" height="22" fill="url(#mgrad)"/>
<text x="134.0" y="458" fill="#8B949E" font-size="11" text-anchor="middle">Aug</text>
<text x="134.0" y="409" fill="#29B5E8" font-size="12" text-anchor="middle" font-weight="700">222.3k</text>
<rect x="172" y="439" width="56" height="1" fill="url(#agrad)"/>
<rect x="172" y="435" width="56" height="4" fill="url(#mgrad)"/>
<text x="200.0" y="458" fill="#8B949E" font-size="11" text-anchor="middle">Sep</text>
<text x="200.0" y="428" fill="#29B5E8" font-size="12" text-anchor="middle" font-weight="700">51.4k</text>
<rect x="238" y="439" width="56" height="1" fill="url(#agrad)"/>
<text x="266.0" y="458" fill="#8B949E" font-size="11" text-anchor="middle">Oct</text>
<text x="266.0" y="432" fill="#29B5E8" font-size="12" text-anchor="middle" font-weight="700">13.6k</text>
<rect x="304" y="438" width="56" height="2" fill="url(#agrad)"/>
<text x="332.0" y="458" fill="#8B949E" font-size="11" text-anchor="middle">Nov</text>
<text x="332.0" y="431" fill="#29B5E8" font-size="12" text-anchor="middle" font-weight="700">19.3k</text>
<rect x="370" y="430" width="56" height="10" fill="url(#agrad)"/>
<rect x="370" y="418" width="56" height="12" fill="url(#mgrad)"/>
<text x="398.0" y="458" fill="#8B949E" font-size="11" text-anchor="middle">Dec</text>
<text x="398.0" y="411" fill="#29B5E8" font-size="12" text-anchor="middle" font-weight="700">203.3k</text>
<rect x="436" y="412" width="56" height="28" fill="url(#agrad)"/>
<rect x="436" y="407" width="56" height="5" fill="url(#mgrad)"/>
<text x="464.0" y="458" fill="#8B949E" font-size="11" text-anchor="middle">Jan</text>
<text x="464.0" y="400" fill="#29B5E8" font-size="12" text-anchor="middle" font-weight="700">310.3k</text>
<rect x="502" y="424" width="56" height="16" fill="url(#agrad)"/>
<rect x="502" y="410" width="56" height="14" fill="url(#mgrad)"/>
<text x="530.0" y="458" fill="#8B949E" font-size="11" text-anchor="middle">Feb</text>
<text x="530.0" y="403" fill="#29B5E8" font-size="12" text-anchor="middle" font-weight="700">287.6k</text>
<rect x="568" y="416" width="56" height="24" fill="url(#agrad)"/>
<rect x="568" y="304" width="56" height="112" fill="url(#mgrad)"/>
<text x="596.0" y="458" fill="#8B949E" font-size="11" text-anchor="middle">Mar</text>
<text x="596.0" y="297" fill="#29B5E8" font-size="12" text-anchor="middle" font-weight="700">1.3M</text>
<rect x="634" y="327" width="56" height="113" fill="url(#agrad)"/>
<rect x="634" y="292" width="56" height="35" fill="url(#mgrad)"/>
<text x="662.0" y="458" fill="#8B949E" font-size="11" text-anchor="middle">Apr</text>
<text x="662.0" y="285" fill="#29B5E8" font-size="12" text-anchor="middle" font-weight="700">1.4M</text>
<rect x="700" y="423" width="56" height="17" fill="url(#agrad)"/>
<rect x="700" y="408" width="56" height="15" fill="url(#mgrad)"/>
<text x="728.0" y="458" fill="#8B949E" font-size="11" text-anchor="middle">May</text>
<text x="728.0" y="401" fill="#29B5E8" font-size="12" text-anchor="middle" font-weight="700">298.3k</text>
<rect x="766" y="151" width="56" height="289" fill="url(#agrad)"/>
<rect x="766" y="141" width="56" height="10" fill="url(#mgrad)"/>
<text x="794.0" y="458" fill="#8B949E" font-size="11" text-anchor="middle">Jun</text>
<text x="794.0" y="134" fill="#29B5E8" font-size="12" text-anchor="middle" font-weight="700">2.8M</text>
<line x1="34" y1="440" x2="856" y2="440" stroke="#30363D" stroke-width="1"/>
<text x="856" y="482" fill="#6E7681" font-size="9" text-anchor="end">L12M &#183; 2026-06-29</text>
</svg>