<svg xmlns="http://www.w3.org/2000/svg" viewBox="0 0 880 496" font-family="Inter,system-ui,sans-serif">
<defs><linearGradient id="agrad" x1="0" x2="0" y1="0" y2="1"><stop offset="0%" stop-color="#3FCF8E"/><stop offset="100%" stop-color="#1F6B49"/></linearGradient><linearGradient id="dgrad" x1="0" x2="0" y1="0" y2="1"><stop offset="0%" stop-color="#FF6973"/><stop offset="100%" stop-color="#8A2F36"/></linearGradient><linearGradient id="mgrad" x1="0" x2="0" y1="0" y2="1"><stop offset="0%" stop-color="#29B5E8"/><stop offset="100%" stop-color="#1A5F8E"/></linearGradient><linearGradient id="topgrad2" x1="0" x2="1" y1="0" y2="0"><stop offset="0%" stop-color="#29B5E8"><animate attributeName="stop-color" values="#29B5E8;#7B42BC;#3FCF8E;#29B5E8" dur="30s" repeatCount="indefinite"/></stop><stop offset="50%" stop-color="#7B42BC"><animate attributeName="stop-color" values="#7B42BC;#3FCF8E;#29B5E8;#7B42BC" dur="30s" repeatCount="indefinite"/></stop><stop offset="100%" stop-color="#3FCF8E"><animate attributeName="stop-color" values="#3FCF8E;#29B5E8;#7B42BC;#3FCF8E" dur="30s" repeatCount="indefinite"/></stop></linearGradient></defs>
<rect width="880" height="496" fill="#0D1117" rx="12"/>
<rect x="0" y="0" width="880" height="4" fill="url(#topgrad2)" rx="12"/>
<text x="40" y="44" fill="#29B5E8" font-size="22" font-weight="700">Lines Modified Per Month</text>
<text x="40" y="76" font-size="13" fill="#C9D1D9"><tspan fill="#29B5E8" font-weight="700">5.5M</tspan><tspan fill="#8B949E"> modified &#183; </tspan><tspan fill="#3FCF8E" font-weight="700">+4.4M</tspan><tspan fill="#8B949E"> &#183; </tspan><tspan fill="#FF6973" font-weight="700">-1.2M</tspan><tspan fill="#8B949E"> &#183; net </tspan><tspan fill="#29B5E8" font-weight="700">+3.2M</tspan></text>
<g transform="translate(40, 104)"><rect x="0" y="0" width="11" height="11" rx="3" fill="url(#agrad)"/><text x="16" y="9" fill="#C9D1D9" font-size="13">Added</text><rect x="62" y="0" width="11" height="11" rx="3" fill="url(#mgrad)"/><text x="78" y="9" fill="#C9D1D9" font-size="13">Modified</text><rect x="142" y="0" width="11" height="11" rx="3" fill="url(#dgrad)"/><text x="158" y="9" fill="#C9D1D9" font-size="13">Removed</text></g>
<rect x="40" y="217" width="56" height="223" fill="url(#agrad)"/>
<text x="68.0" y="458" fill="#8B949E" font-size="11" text-anchor="middle">Jun</text>
<text x="68.0" y="210" fill="#29B5E8" font-size="12" text-anchor="middle" font-weight="700">1M</text>
<rect x="106" y="388" width="56" height="52" fill="url(#agrad)"/>
<rect x="106" y="310" width="56" height="78" fill="url(#mgrad)"/>
<text x="134.0" y="458" fill="#8B949E" font-size="11" text-anchor="middle">Jul</text>
<text x="134.0" y="303" fill="#29B5E8" font-size="12" text-anchor="middle" font-weight="700">598k</text>
<rect x="172" y="437" width="56" height="3" fill="url(#agrad)"/>
<rect x="172" y="393" width="56" height="44" fill="url(#mgrad)"/>
<text x="200.0" y="458" fill="#8B949E" font-size="11" text-anchor="middle">Aug</text>
<text x="200.0" y="386" fill="#29B5E8" font-size="12" text-anchor="middle" font-weight="700">222.1k</text>
<rect x="238" y="438" width="56" height="2" fill="url(#agrad)"/>
<rect x="238" y="430" width="56" height="8" fill="url(#mgrad)"/>
<text x="266.0" y="458" fill="#8B949E" font-size="11" text-anchor="middle">Sep</text>
<text x="266.0" y="423" fill="#29B5E8" font-size="12" text-anchor="middle" font-weight="700">51.4k</text>
<rect x="304" y="438" width="56" height="2" fill="url(#agrad)"/>
<text x="332.0" y="458" fill="#8B949E" font-size="11" text-anchor="middle">Oct</text>
<text x="332.0" y="431" fill="#29B5E8" font-size="12" text-anchor="middle" font-weight="700">13.6k</text>
<rect x="370" y="436" width="56" height="4" fill="url(#agrad)"/>
<text x="398.0" y="458" fill="#8B949E" font-size="11" text-anchor="middle">Nov</text>
<text x="398.0" y="429" fill="#29B5E8" font-size="12" text-anchor="middle" font-weight="700">19.3k</text>
<rect x="436" y="420" width="56" height="20" fill="url(#agrad)"/>
<rect x="436" y="396" width="56" height="24" fill="url(#mgrad)"/>
<text x="464.0" y="458" fill="#8B949E" font-size="11" text-anchor="middle">Dec</text>
<text x="464.0" y="389" fill="#29B5E8" font-size="12" text-anchor="middle" font-weight="700">203.3k</text>
<rect x="502" y="384" width="56" height="56" fill="url(#agrad)"/>
<rect x="502" y="373" width="56" height="11" fill="url(#mgrad)"/>
<text x="530.0" y="458" fill="#8B949E" font-size="11" text-anchor="middle">Jan</text>
<text x="530.0" y="366" fill="#29B5E8" font-size="12" text-anchor="middle" font-weight="700">310.3k</text>
<rect x="568" y="406" width="56" height="34" fill="url(#agrad)"/>
<rect x="568" y="377" width="56" height="29" fill="url(#mgrad)"/>
<text x="596.0" y="458" fill="#8B949E" font-size="11" text-anchor="middle">Feb</text>
<text x="596.0" y="370" fill="#29B5E8" font-size="12" text-anchor="middle" font-weight="700">288.2k</text>
<rect x="634" y="392" width="56" height="48" fill="url(#agrad)"/>
<rect x="634" y="165" width="56" height="227" fill="url(#mgrad)"/>
<text x="662.0" y="458" fill="#8B949E" font-size="11" text-anchor="middle">Mar</text>
<text x="662.0" y="158" fill="#29B5E8" font-size="12" text-anchor="middle" font-weight="700">1.3M</text>
<rect x="700" y="212" width="56" height="228" fill="url(#agrad)"/>
<rect x="700" y="141" width="56" height="71" fill="url(#mgrad)"/>
<text x="728.0" y="458" fill="#8B949E" font-size="11" text-anchor="middle">Apr</text>
<text x="728.0" y="134" fill="#29B5E8" font-size="12" text-anchor="middle" font-weight="700">1.4M</text>
<rect x="766" y="419" width="56" height="21" fill="url(#agrad)"/>
<rect x="766" y="402" width="56" height="17" fill="url(#mgrad)"/>
<text x="794.0" y="458" fill="#8B949E" font-size="11" text-anchor="middle">May</text>
<text x="794.0" y="395" fill="#29B5E8" font-size="12" text-anchor="middle" font-weight="700">180.3k</text>
<line x1="34" y1="440" x2="856" y2="440" stroke="#30363D" stroke-width="1"/>
<text x="856" y="482" fill="#6E7681" font-size="9" text-anchor="end">L12M &#183; 2026-05-25</text>
</svg>