<svg xmlns="http://www.w3.org/2000/svg" viewBox="0 0 440 338" font-family="Inter,system-ui,sans-serif">
<defs><linearGradient id="cgrad" x1="0" x2="0" y1="0" y2="1"><stop offset="0%" stop-color="#29B5E8"/><stop offset="100%" stop-color="#1A5F8E"/></linearGradient><linearGradient id="topgrad" x1="0" x2="1" y1="0" y2="0"><stop offset="0%" stop-color="#29B5E8"><animate attributeName="stop-color" values="#29B5E8;#7B42BC;#3FCF8E;#29B5E8" dur="30s" repeatCount="indefinite"/></stop><stop offset="50%" stop-color="#7B42BC"><animate attributeName="stop-color" values="#7B42BC;#3FCF8E;#29B5E8;#7B42BC" dur="30s" repeatCount="indefinite"/></stop><stop offset="100%" stop-color="#3FCF8E"><animate attributeName="stop-color" values="#3FCF8E;#29B5E8;#7B42BC;#3FCF8E" dur="30s" repeatCount="indefinite"/></stop></linearGradient></defs>
<rect width="440" height="338" fill="#0D1117" rx="12"/>
<rect x="0" y="0" width="440" height="4" fill="url(#topgrad)" rx="12"/>
<text x="28" y="36" fill="#29B5E8" font-size="17" font-weight="700">Claude Code Spend Per Month</text>
<text x="28" y="62" font-size="11" fill="#C9D1D9"><tspan fill="#29B5E8" font-weight="700">$11,841.57</tspan><tspan fill="#8B949E"> total · </tspan><tspan fill="#29B5E8" font-weight="700">$987</tspan><tspan fill="#8B949E">/mo avg · </tspan><tspan fill="#29B5E8" font-weight="700">$11.8k</tspan><tspan fill="#8B949E"> peak · </tspan><tspan fill="#29B5E8" font-weight="700">16.6B</tspan><tspan fill="#8B949E"> tokens</tspan></text>
<rect x="32.6" y="286.0" width="23.6" height="2.0" rx="3" fill="url(#cgrad)"/>
<text x="44.4" y="281.0" fill="#FFFFFF" font-size="11" text-anchor="middle" font-weight="600"></text>
<text x="44.4" y="304" fill="#8B949E" font-size="11" text-anchor="middle">Jul</text>
<rect x="65.4" y="286.0" width="23.6" height="2.0" rx="3" fill="url(#cgrad)"/>
<text x="77.2" y="281.0" fill="#FFFFFF" font-size="11" text-anchor="middle" font-weight="600"></text>
<text x="77.2" y="304" fill="#8B949E" font-size="11" text-anchor="middle">Aug</text>
<rect x="98.3" y="286.0" width="23.6" height="2.0" rx="3" fill="url(#cgrad)"/>
<text x="110.1" y="281.0" fill="#FFFFFF" font-size="11" text-anchor="middle" font-weight="600"></text>
<text x="110.1" y="304" fill="#8B949E" font-size="11" text-anchor="middle">Sep</text>
<rect x="131.1" y="286.0" width="23.6" height="2.0" rx="3" fill="url(#cgrad)"/>
<text x="142.9" y="281.0" fill="#FFFFFF" font-size="11" text-anchor="middle" font-weight="600"></text>
<text x="142.9" y="304" fill="#8B949E" font-size="11" text-anchor="middle">Oct</text>
<rect x="163.9" y="286.0" width="23.6" height="2.0" rx="3" fill="url(#cgrad)"/>
<text x="175.8" y="281.0" fill="#FFFFFF" font-size="11" text-anchor="middle" font-weight="600"></text>
<text x="175.8" y="304" fill="#8B949E" font-size="11" text-anchor="middle">Nov</text>
<rect x="196.8" y="286.0" width="23.6" height="2.0" rx="3" fill="url(#cgrad)"/>
<text x="208.6" y="281.0" fill="#FFFFFF" font-size="11" text-anchor="middle" font-weight="600"></text>
<text x="208.6" y="304" fill="#8B949E" font-size="11" text-anchor="middle">Dec</text>
<rect x="229.6" y="286.0" width="23.6" height="2.0" rx="3" fill="url(#cgrad)"/>
<text x="241.4" y="281.0" fill="#FFFFFF" font-size="11" text-anchor="middle" font-weight="600"></text>
<text x="241.4" y="304" fill="#8B949E" font-size="11" text-anchor="middle">Jan</text>
<rect x="262.4" y="286.0" width="23.6" height="2.0" rx="3" fill="url(#cgrad)"/>
<text x="274.3" y="281.0" fill="#FFFFFF" font-size="11" text-anchor="middle" font-weight="600"></text>
<text x="274.3" y="304" fill="#8B949E" font-size="11" text-anchor="middle">Feb</text>
<rect x="295.3" y="286.0" width="23.6" height="2.0" rx="3" fill="url(#cgrad)"/>
<text x="307.1" y="281.0" fill="#FFFFFF" font-size="11" text-anchor="middle" font-weight="600"></text>
<text x="307.1" y="304" fill="#8B949E" font-size="11" text-anchor="middle">Mar</text>
<rect x="328.1" y="286.0" width="23.6" height="2.0" rx="3" fill="url(#cgrad)"/>
<text x="339.9" y="281.0" fill="#FFFFFF" font-size="11" text-anchor="middle" font-weight="600"></text>
<text x="339.9" y="304" fill="#8B949E" font-size="11" text-anchor="middle">Apr</text>
<rect x="360.9" y="286.0" width="23.6" height="2.0" rx="3" fill="url(#cgrad)"/>
<text x="372.8" y="281.0" fill="#FFFFFF" font-size="11" text-anchor="middle" font-weight="600"></text>
<text x="372.8" y="304" fill="#8B949E" font-size="11" text-anchor="middle">May</text>
<rect x="393.8" y="104.0" width="23.6" height="184.0" rx="3" fill="url(#cgrad)"/>
<text x="405.6" y="99.0" fill="#FFFFFF" font-size="11" text-anchor="middle" font-weight="600">$11.8k</text>
<text x="405.6" y="304" fill="#8B949E" font-size="11" text-anchor="middle">Jun</text>
<line x1="22" y1="288" x2="422" y2="288" stroke="#30363D" stroke-width="1"/>
<text x="422" y="324" fill="#6E7681" font-size="9" text-anchor="end">L12M · API-equiv list price · 2 machines · 2026-06-22</text>
</svg>