<svg xmlns="http://www.w3.org/2000/svg" viewBox="0 0 880 452" font-family="Inter,system-ui,sans-serif">
<defs><linearGradient id="cgrad" x1="0" x2="0" y1="0" y2="1"><stop offset="0%" stop-color="#29B5E8"/><stop offset="100%" stop-color="#1A5F8E"/></linearGradient><linearGradient id="topgrad" x1="0" x2="1" y1="0" y2="0"><stop offset="0%" stop-color="#29B5E8"><animate attributeName="stop-color" values="#29B5E8;#7B42BC;#3FCF8E;#29B5E8" dur="30s" repeatCount="indefinite"/></stop><stop offset="50%" stop-color="#7B42BC"><animate attributeName="stop-color" values="#7B42BC;#3FCF8E;#29B5E8;#7B42BC" dur="30s" repeatCount="indefinite"/></stop><stop offset="100%" stop-color="#3FCF8E"><animate attributeName="stop-color" values="#3FCF8E;#29B5E8;#7B42BC;#3FCF8E" dur="30s" repeatCount="indefinite"/></stop></linearGradient></defs>
<rect width="880" height="452" fill="#0D1117" rx="12"/>
<rect x="0" y="0" width="880" height="4" fill="url(#topgrad)" rx="12"/>
<text x="40" y="44" fill="#29B5E8" font-size="22" font-weight="700">Claude Code Tokens Per Month</text>
<text x="40" y="76" font-size="13" fill="#C9D1D9"><tspan fill="#29B5E8" font-weight="700">38.3B</tspan><tspan fill="#8B949E"> tokens · </tspan><tspan fill="#29B5E8" font-weight="700">3.2B</tspan><tspan fill="#8B949E">/mo avg · </tspan><tspan fill="#29B5E8" font-weight="700">20.7B</tspan><tspan fill="#8B949E"> peak</tspan></text>
<text x="40" y="100" font-size="13" fill="#C9D1D9"><tspan fill="#3FCF8E" font-weight="700">$12.9k</tspan><tspan fill="#8B949E"> of API-equiv usage in one month — on a </tspan><tspan fill="#3FCF8E" font-weight="700">$200/mo Max plan</tspan><tspan fill="#3FCF8E" font-weight="700">  (65× the plan)</tspan></text>
<rect x="50.0" y="394.0" width="48.0" height="2.0" rx="3" fill="url(#cgrad)"/>
<text x="74.0" y="389.0" fill="#FFFFFF" font-size="11" text-anchor="middle" font-weight="600"></text>
<text x="74.0" y="414" fill="#8B949E" font-size="11" text-anchor="middle">Aug</text>
<rect x="118.0" y="394.0" width="48.0" height="2.0" rx="3" fill="url(#cgrad)"/>
<text x="142.0" y="389.0" fill="#FFFFFF" font-size="11" text-anchor="middle" font-weight="600"></text>
<text x="142.0" y="414" fill="#8B949E" font-size="11" text-anchor="middle">Sep</text>
<rect x="186.0" y="394.0" width="48.0" height="2.0" rx="3" fill="url(#cgrad)"/>
<text x="210.0" y="389.0" fill="#FFFFFF" font-size="11" text-anchor="middle" font-weight="600"></text>
<text x="210.0" y="414" fill="#8B949E" font-size="11" text-anchor="middle">Oct</text>
<rect x="254.0" y="394.0" width="48.0" height="2.0" rx="3" fill="url(#cgrad)"/>
<text x="278.0" y="389.0" fill="#FFFFFF" font-size="11" text-anchor="middle" font-weight="600"></text>
<text x="278.0" y="414" fill="#8B949E" font-size="11" text-anchor="middle">Nov</text>
<rect x="322.0" y="394.0" width="48.0" height="2.0" rx="3" fill="url(#cgrad)"/>
<text x="346.0" y="389.0" fill="#FFFFFF" font-size="11" text-anchor="middle" font-weight="600"></text>
<text x="346.0" y="414" fill="#8B949E" font-size="11" text-anchor="middle">Dec</text>
<rect x="390.0" y="394.0" width="48.0" height="2.0" rx="3" fill="url(#cgrad)"/>
<text x="414.0" y="389.0" fill="#FFFFFF" font-size="11" text-anchor="middle" font-weight="600"></text>
<text x="414.0" y="414" fill="#8B949E" font-size="11" text-anchor="middle">Jan</text>
<rect x="458.0" y="394.0" width="48.0" height="2.0" rx="3" fill="url(#cgrad)"/>
<text x="482.0" y="389.0" fill="#FFFFFF" font-size="11" text-anchor="middle" font-weight="600"></text>
<text x="482.0" y="414" fill="#8B949E" font-size="11" text-anchor="middle">Feb</text>
<rect x="526.0" y="394.0" width="48.0" height="2.0" rx="3" fill="url(#cgrad)"/>
<text x="550.0" y="389.0" fill="#FFFFFF" font-size="11" text-anchor="middle" font-weight="600"></text>
<text x="550.0" y="414" fill="#8B949E" font-size="11" text-anchor="middle">Mar</text>
<rect x="594.0" y="394.0" width="48.0" height="2.0" rx="3" fill="url(#cgrad)"/>
<text x="618.0" y="389.0" fill="#FFFFFF" font-size="11" text-anchor="middle" font-weight="600"></text>
<text x="618.0" y="414" fill="#8B949E" font-size="11" text-anchor="middle">Apr</text>
<rect x="662.0" y="132.0" width="48.0" height="264.0" rx="3" fill="url(#cgrad)"/>
<text x="686.0" y="127.0" fill="#FFFFFF" font-size="11" text-anchor="middle" font-weight="600">20.7B</text>
<text x="686.0" y="414" fill="#8B949E" font-size="11" text-anchor="middle">May</text>
<rect x="730.0" y="175.3" width="48.0" height="220.7" rx="3" fill="url(#cgrad)"/>
<text x="754.0" y="170.3" fill="#FFFFFF" font-size="11" text-anchor="middle" font-weight="600">17.3B</text>
<text x="754.0" y="414" fill="#8B949E" font-size="11" text-anchor="middle">Jun</text>
<rect x="798.0" y="393.7" width="48.0" height="2.3" rx="3" fill="url(#cgrad)"/>
<text x="822.0" y="388.7" fill="#FFFFFF" font-size="11" text-anchor="middle" font-weight="600">180M</text>
<text x="822.0" y="414" fill="#8B949E" font-size="11" text-anchor="middle">Jul</text>
<line x1="34" y1="396" x2="856" y2="396" stroke="#30363D" stroke-width="1"/>
<text x="856" y="438" fill="#6E7681" font-size="9" text-anchor="end">L12M · bars = tokens · $ at API list price · 3 machines · 2026-07-06</text>
</svg>