<svg xmlns="http://www.w3.org/2000/svg" viewBox="0 0 880 452" font-family="Inter,system-ui,sans-serif">
<defs><linearGradient id="cgrad" x1="0" x2="0" y1="0" y2="1"><stop offset="0%" stop-color="#29B5E8"/><stop offset="100%" stop-color="#1A5F8E"/></linearGradient><linearGradient id="topgrad" x1="0" x2="1" y1="0" y2="0"><stop offset="0%" stop-color="#29B5E8"><animate attributeName="stop-color" values="#29B5E8;#7B42BC;#3FCF8E;#29B5E8" dur="30s" repeatCount="indefinite"/></stop><stop offset="50%" stop-color="#7B42BC"><animate attributeName="stop-color" values="#7B42BC;#3FCF8E;#29B5E8;#7B42BC" dur="30s" repeatCount="indefinite"/></stop><stop offset="100%" stop-color="#3FCF8E"><animate attributeName="stop-color" values="#3FCF8E;#29B5E8;#7B42BC;#3FCF8E" dur="30s" repeatCount="indefinite"/></stop></linearGradient></defs>
<rect width="880" height="452" fill="#0D1117" rx="12"/>
<rect x="0" y="0" width="880" height="4" fill="url(#topgrad)" rx="12"/>
<text x="40" y="44" fill="#29B5E8" font-size="22" font-weight="700">Claude Code Spend Per Day</text>
<text x="40" y="76" font-size="13" fill="#C9D1D9"><tspan fill="#29B5E8" font-weight="700">$27,008.68</tspan><tspan fill="#8B949E"> total · </tspan><tspan fill="#29B5E8" font-weight="700">$1.3k</tspan><tspan fill="#8B949E">/day avg · </tspan><tspan fill="#29B5E8" font-weight="700">$5.3k</tspan><tspan fill="#8B949E"> peak · </tspan><tspan fill="#29B5E8" font-weight="700">15.0B</tspan><tspan fill="#8B949E"> tokens</tspan></text>
<rect x="45.4" y="394.0" width="28.0" height="2.0" rx="3" fill="url(#cgrad)"/>
<text x="59.4" y="389.0" fill="#FFFFFF" font-size="11" text-anchor="middle" font-weight="600">$35</text>
<text x="59.4" y="414" fill="#8B949E" font-size="11" text-anchor="middle">01</text>
<rect x="84.3" y="385.9" width="28.0" height="10.1" rx="3" fill="url(#cgrad)"/>
<text x="98.3" y="380.9" fill="#FFFFFF" font-size="11" text-anchor="middle" font-weight="600">$193</text>
<text x="98.3" y="414" fill="#8B949E" font-size="11" text-anchor="middle">02</text>
<rect x="123.2" y="120.0" width="28.0" height="276.0" rx="3" fill="url(#cgrad)"/>
<text x="137.1" y="115.0" fill="#FFFFFF" font-size="11" text-anchor="middle" font-weight="600">$5.3k</text>
<text x="137.1" y="414" fill="#8B949E" font-size="11" text-anchor="middle">03</text>
<rect x="162.0" y="245.9" width="28.0" height="150.1" rx="3" fill="url(#cgrad)"/>
<text x="176.0" y="240.9" fill="#FFFFFF" font-size="11" text-anchor="middle" font-weight="600">$2.9k</text>
<text x="176.0" y="414" fill="#8B949E" font-size="11" text-anchor="middle">04</text>
<rect x="200.9" y="234.1" width="28.0" height="161.9" rx="3" fill="url(#cgrad)"/>
<text x="214.9" y="229.1" fill="#FFFFFF" font-size="11" text-anchor="middle" font-weight="600">$3.1k</text>
<text x="214.9" y="414" fill="#8B949E" font-size="11" text-anchor="middle">05</text>
<rect x="239.7" y="309.9" width="28.0" height="86.1" rx="3" fill="url(#cgrad)"/>
<text x="253.7" y="304.9" fill="#FFFFFF" font-size="11" text-anchor="middle" font-weight="600">$1.6k</text>
<text x="253.7" y="414" fill="#8B949E" font-size="11" text-anchor="middle">06</text>
<rect x="278.6" y="390.0" width="28.0" height="6.0" rx="3" fill="url(#cgrad)"/>
<text x="292.6" y="385.0" fill="#FFFFFF" font-size="11" text-anchor="middle" font-weight="600">$114</text>
<text x="292.6" y="414" fill="#8B949E" font-size="11" text-anchor="middle">07</text>
<rect x="317.4" y="387.3" width="28.0" height="8.7" rx="3" fill="url(#cgrad)"/>
<text x="331.4" y="382.3" fill="#FFFFFF" font-size="11" text-anchor="middle" font-weight="600">$165</text>
<text x="331.4" y="414" fill="#8B949E" font-size="11" text-anchor="middle">08</text>
<rect x="356.3" y="389.9" width="28.0" height="6.1" rx="3" fill="url(#cgrad)"/>
<text x="370.3" y="384.9" fill="#FFFFFF" font-size="11" text-anchor="middle" font-weight="600">$116</text>
<text x="370.3" y="414" fill="#8B949E" font-size="11" text-anchor="middle">09</text>
<rect x="395.2" y="347.0" width="28.0" height="49.0" rx="3" fill="url(#cgrad)"/>
<text x="409.1" y="342.0" fill="#FFFFFF" font-size="11" text-anchor="middle" font-weight="600">$934</text>
<text x="409.1" y="414" fill="#8B949E" font-size="11" text-anchor="middle">10</text>
<rect x="434.0" y="355.5" width="28.0" height="40.5" rx="3" fill="url(#cgrad)"/>
<text x="448.0" y="350.5" fill="#FFFFFF" font-size="11" text-anchor="middle" font-weight="600">$773</text>
<text x="448.0" y="414" fill="#8B949E" font-size="11" text-anchor="middle">11</text>
<rect x="472.9" y="368.1" width="28.0" height="27.9" rx="3" fill="url(#cgrad)"/>
<text x="486.9" y="363.1" fill="#FFFFFF" font-size="11" text-anchor="middle" font-weight="600">$532</text>
<text x="486.9" y="414" fill="#8B949E" font-size="11" text-anchor="middle">12</text>
<rect x="511.7" y="335.5" width="28.0" height="60.5" rx="3" fill="url(#cgrad)"/>
<text x="525.7" y="330.5" fill="#FFFFFF" font-size="11" text-anchor="middle" font-weight="600">$1.2k</text>
<text x="525.7" y="414" fill="#8B949E" font-size="11" text-anchor="middle">13</text>
<rect x="550.6" y="312.4" width="28.0" height="83.6" rx="3" fill="url(#cgrad)"/>
<text x="564.6" y="307.4" fill="#FFFFFF" font-size="11" text-anchor="middle" font-weight="600">$1.6k</text>
<text x="564.6" y="414" fill="#8B949E" font-size="11" text-anchor="middle">14</text>
<rect x="589.4" y="387.8" width="28.0" height="8.2" rx="3" fill="url(#cgrad)"/>
<text x="603.4" y="382.8" fill="#FFFFFF" font-size="11" text-anchor="middle" font-weight="600">$156</text>
<text x="603.4" y="414" fill="#8B949E" font-size="11" text-anchor="middle">15</text>
<rect x="628.3" y="362.0" width="28.0" height="34.0" rx="3" fill="url(#cgrad)"/>
<text x="642.3" y="357.0" fill="#FFFFFF" font-size="11" text-anchor="middle" font-weight="600">$649</text>
<text x="642.3" y="414" fill="#8B949E" font-size="11" text-anchor="middle">17</text>
<rect x="667.2" y="353.4" width="28.0" height="42.6" rx="3" fill="url(#cgrad)"/>
<text x="681.1" y="348.4" fill="#FFFFFF" font-size="11" text-anchor="middle" font-weight="600">$813</text>
<text x="681.1" y="414" fill="#8B949E" font-size="11" text-anchor="middle">18</text>
<rect x="706.0" y="225.9" width="28.0" height="170.1" rx="3" fill="url(#cgrad)"/>
<text x="720.0" y="220.9" fill="#FFFFFF" font-size="11" text-anchor="middle" font-weight="600">$3.2k</text>
<text x="720.0" y="414" fill="#8B949E" font-size="11" text-anchor="middle">19</text>
<rect x="744.9" y="325.1" width="28.0" height="70.9" rx="3" fill="url(#cgrad)"/>
<text x="758.9" y="320.1" fill="#FFFFFF" font-size="11" text-anchor="middle" font-weight="600">$1.4k</text>
<text x="758.9" y="414" fill="#8B949E" font-size="11" text-anchor="middle">20</text>
<rect x="783.7" y="303.5" width="28.0" height="92.5" rx="3" fill="url(#cgrad)"/>
<text x="797.7" y="298.5" fill="#FFFFFF" font-size="11" text-anchor="middle" font-weight="600">$1.8k</text>
<text x="797.7" y="414" fill="#8B949E" font-size="11" text-anchor="middle">21</text>
<rect x="822.6" y="367.2" width="28.0" height="28.8" rx="3" fill="url(#cgrad)"/>
<text x="836.6" y="362.2" fill="#FFFFFF" font-size="11" text-anchor="middle" font-weight="600">$549</text>
<text x="836.6" y="414" fill="#8B949E" font-size="11" text-anchor="middle">22</text>
<line x1="34" y1="396" x2="856" y2="396" stroke="#30363D" stroke-width="1"/>
<text x="856" y="438" fill="#6E7681" font-size="9" text-anchor="end">1 machine · 2026-06-01→2026-06-22 · 2026-06-22</text>
</svg>