<svg xmlns="http://www.w3.org/2000/svg" width="480" height="222" viewBox="0 0 480 222" font-family="Inter,system-ui,sans-serif">

<defs>
  <linearGradient id="cgrad" x1="0" x2="0" y1="0" y2="1">
    <stop offset="0%" stop-color="#29B5E8"/><stop offset="100%" stop-color="#1A5F8E"/>
  </linearGradient>
  <linearGradient id="agrad" x1="0" x2="0" y1="0" y2="1">
    <stop offset="0%" stop-color="#3FCF8E"/><stop offset="100%" stop-color="#1F6B49"/>
  </linearGradient>
  <linearGradient id="dgrad" x1="0" x2="0" y1="0" y2="1">
    <stop offset="0%" stop-color="#FF6973"/><stop offset="100%" stop-color="#8A2F36"/>
  </linearGradient>
  <linearGradient id="topgrad" x1="0" x2="1" y1="0" y2="0">
    <stop offset="0%" stop-color="#29B5E8">
      <animate attributeName="stop-color" values="#29B5E8;#7B42BC;#3FCF8E;#29B5E8" dur="30s" repeatCount="indefinite"/>
    </stop>
    <stop offset="50%" stop-color="#7B42BC">
      <animate attributeName="stop-color" values="#7B42BC;#3FCF8E;#29B5E8;#7B42BC" dur="30s" repeatCount="indefinite"/>
    </stop>
    <stop offset="100%" stop-color="#3FCF8E">
      <animate attributeName="stop-color" values="#3FCF8E;#29B5E8;#7B42BC;#3FCF8E" dur="30s" repeatCount="indefinite"/>
    </stop>
  </linearGradient>
</defs>

<rect width="480" height="222" fill="#0D1117" rx="14"/>
<rect x="0" y="0" width="480" height="3" fill="url(#topgrad)" rx="14"/>
<text x="24" y="36" fill="#29B5E8" font-size="17" font-weight="700">Commits per Month</text>
<text x="24" y="58" font-size="12" fill="#8B949E"><tspan fill="#C9D1D9" font-weight="700">4,036</tspan> total &#183; <tspan fill="#C9D1D9" font-weight="700">336</tspan>/mo avg &#183; <tspan fill="#C9D1D9" font-weight="700">1,268</tspan> peak</text>
<rect x="24" y="181" width="22" height="5" rx="3" fill="url(#cgrad)"/>
<text x="35.0" y="176" fill="#FFFFFF" font-size="9" text-anchor="middle" font-weight="600">63</text>
<text x="35.0" y="200" fill="#8B949E" font-size="9" text-anchor="middle">Jun</text>
<rect x="61" y="147" width="22" height="39" rx="3" fill="url(#cgrad)"/>
<text x="72.0" y="142" fill="#FFFFFF" font-size="9" text-anchor="middle" font-weight="600">451</text>
<text x="72.0" y="200" fill="#8B949E" font-size="9" text-anchor="middle">Jul</text>
<rect x="98" y="181" width="22" height="5" rx="3" fill="url(#cgrad)"/>
<text x="109.0" y="176" fill="#FFFFFF" font-size="9" text-anchor="middle" font-weight="600">62</text>
<text x="109.0" y="200" fill="#8B949E" font-size="9" text-anchor="middle">Aug</text>
<rect x="135" y="184" width="22" height="2" rx="3" fill="url(#cgrad)"/>
<text x="146.0" y="179" fill="#FFFFFF" font-size="9" text-anchor="middle" font-weight="600">15</text>
<text x="146.0" y="200" fill="#8B949E" font-size="9" text-anchor="middle">Sep</text>
<rect x="172" y="184" width="22" height="2" rx="3" fill="url(#cgrad)"/>
<text x="183.0" y="179" fill="#FFFFFF" font-size="9" text-anchor="middle" font-weight="600">20</text>
<text x="183.0" y="200" fill="#8B949E" font-size="9" text-anchor="middle">Oct</text>
<rect x="209" y="184" width="22" height="2" rx="3" fill="url(#cgrad)"/>
<text x="220.0" y="179" fill="#FFFFFF" font-size="9" text-anchor="middle" font-weight="600">6</text>
<text x="220.0" y="200" fill="#8B949E" font-size="9" text-anchor="middle">Nov</text>
<rect x="246" y="169" width="22" height="17" rx="3" fill="url(#cgrad)"/>
<text x="257.0" y="164" fill="#FFFFFF" font-size="9" text-anchor="middle" font-weight="600">205</text>
<text x="257.0" y="200" fill="#8B949E" font-size="9" text-anchor="middle">Dec</text>
<rect x="283" y="161" width="22" height="25" rx="3" fill="url(#cgrad)"/>
<text x="294.0" y="156" fill="#FFFFFF" font-size="9" text-anchor="middle" font-weight="600">298</text>
<text x="294.0" y="200" fill="#8B949E" font-size="9" text-anchor="middle">Jan</text>
<rect x="320" y="158" width="22" height="28" rx="3" fill="url(#cgrad)"/>
<text x="331.0" y="153" fill="#FFFFFF" font-size="9" text-anchor="middle" font-weight="600">324</text>
<text x="331.0" y="200" fill="#8B949E" font-size="9" text-anchor="middle">Feb</text>
<rect x="357" y="137" width="22" height="49" rx="3" fill="url(#cgrad)"/>
<text x="368.0" y="132" fill="#FFFFFF" font-size="9" text-anchor="middle" font-weight="600">572</text>
<text x="368.0" y="200" fill="#8B949E" font-size="9" text-anchor="middle">Mar</text>
<rect x="394" y="76" width="22" height="110" rx="3" fill="url(#cgrad)"/>
<text x="405.0" y="71" fill="#FFFFFF" font-size="9" text-anchor="middle" font-weight="600">1.3k</text>
<text x="405.0" y="200" fill="#8B949E" font-size="9" text-anchor="middle">Apr</text>
<rect x="431" y="121" width="22" height="65" rx="3" fill="url(#cgrad)"/>
<text x="442.0" y="116" fill="#FFFFFF" font-size="9" text-anchor="middle" font-weight="600">752</text>
<text x="442.0" y="200" fill="#8B949E" font-size="9" text-anchor="middle">May</text>
<text x="456" y="210" fill="#6E7681" font-size="9" text-anchor="end">L12M &#183; 2026-05-20</text>
</svg>