<svg xmlns="http://www.w3.org/2000/svg" viewBox="0 0 880 452" font-family="Inter,system-ui,sans-serif">
<defs><linearGradient id="cgrad" x1="0" x2="0" y1="0" y2="1"><stop offset="0%" stop-color="#29B5E8"/><stop offset="100%" stop-color="#1A5F8E"/></linearGradient><linearGradient id="topgrad" x1="0" x2="1" y1="0" y2="0"><stop offset="0%" stop-color="#29B5E8"><animate attributeName="stop-color" values="#29B5E8;#7B42BC;#3FCF8E;#29B5E8" dur="30s" repeatCount="indefinite"/></stop><stop offset="50%" stop-color="#7B42BC"><animate attributeName="stop-color" values="#7B42BC;#3FCF8E;#29B5E8;#7B42BC" dur="30s" repeatCount="indefinite"/></stop><stop offset="100%" stop-color="#3FCF8E"><animate attributeName="stop-color" values="#3FCF8E;#29B5E8;#7B42BC;#3FCF8E" dur="30s" repeatCount="indefinite"/></stop></linearGradient></defs>
<rect width="880" height="452" fill="#0D1117" rx="12"/>
<rect x="0" y="0" width="880" height="4" fill="url(#topgrad)" rx="12"/>
<text x="40" y="44" fill="#29B5E8" font-size="22" font-weight="700">Commits Per Month</text>
<text x="40" y="76" font-size="13" fill="#C9D1D9"><tspan fill="#29B5E8" font-weight="700">6,153</tspan><tspan fill="#8B949E"> total &#183; </tspan><tspan fill="#29B5E8" font-weight="700">512</tspan><tspan fill="#8B949E">/mo avg &#183; </tspan><tspan fill="#29B5E8" font-weight="700">1,797</tspan><tspan fill="#8B949E"> peak</tspan></text>
<rect x="40" y="328" width="48" height="68" rx="3" fill="url(#cgrad)"/>
<text x="64.0" y="323" fill="#FFFFFF" font-size="11" text-anchor="middle" font-weight="600">441</text>
<text x="64.0" y="414" fill="#8B949E" font-size="11" text-anchor="middle">Jul</text>
<rect x="106" y="387" width="48" height="9" rx="3" fill="url(#cgrad)"/>
<text x="130.0" y="382" fill="#FFFFFF" font-size="11" text-anchor="middle" font-weight="600">62</text>
<text x="130.0" y="414" fill="#8B949E" font-size="11" text-anchor="middle">Aug</text>
<rect x="172" y="394" width="48" height="2" rx="3" fill="url(#cgrad)"/>
<text x="196.0" y="389" fill="#FFFFFF" font-size="11" text-anchor="middle" font-weight="600">15</text>
<text x="196.0" y="414" fill="#8B949E" font-size="11" text-anchor="middle">Sep</text>
<rect x="238" y="393" width="48" height="3" rx="3" fill="url(#cgrad)"/>
<text x="262.0" y="388" fill="#FFFFFF" font-size="11" text-anchor="middle" font-weight="600">20</text>
<text x="262.0" y="414" fill="#8B949E" font-size="11" text-anchor="middle">Oct</text>
<rect x="304" y="394" width="48" height="2" rx="3" fill="url(#cgrad)"/>
<text x="328.0" y="389" fill="#FFFFFF" font-size="11" text-anchor="middle" font-weight="600">6</text>
<text x="328.0" y="414" fill="#8B949E" font-size="11" text-anchor="middle">Nov</text>
<rect x="370" y="365" width="48" height="31" rx="3" fill="url(#cgrad)"/>
<text x="394.0" y="360" fill="#FFFFFF" font-size="11" text-anchor="middle" font-weight="600">205</text>
<text x="394.0" y="414" fill="#8B949E" font-size="11" text-anchor="middle">Dec</text>
<rect x="436" y="350" width="48" height="46" rx="3" fill="url(#cgrad)"/>
<text x="460.0" y="345" fill="#FFFFFF" font-size="11" text-anchor="middle" font-weight="600">298</text>
<text x="460.0" y="414" fill="#8B949E" font-size="11" text-anchor="middle">Jan</text>
<rect x="502" y="346" width="48" height="50" rx="3" fill="url(#cgrad)"/>
<text x="526.0" y="341" fill="#FFFFFF" font-size="11" text-anchor="middle" font-weight="600">324</text>
<text x="526.0" y="414" fill="#8B949E" font-size="11" text-anchor="middle">Feb</text>
<rect x="568" y="307" width="48" height="89" rx="3" fill="url(#cgrad)"/>
<text x="592.0" y="302" fill="#FFFFFF" font-size="11" text-anchor="middle" font-weight="600">572</text>
<text x="592.0" y="414" fill="#8B949E" font-size="11" text-anchor="middle">Mar</text>
<rect x="634" y="199" width="48" height="197" rx="3" fill="url(#cgrad)"/>
<text x="658.0" y="194" fill="#FFFFFF" font-size="11" text-anchor="middle" font-weight="600">1.3k</text>
<text x="658.0" y="414" fill="#8B949E" font-size="11" text-anchor="middle">Apr</text>
<rect x="700" y="116" width="48" height="280" rx="3" fill="url(#cgrad)"/>
<text x="724.0" y="111" fill="#FFFFFF" font-size="11" text-anchor="middle" font-weight="600">1.8k</text>
<text x="724.0" y="414" fill="#8B949E" font-size="11" text-anchor="middle">May</text>
<rect x="766" y="218" width="48" height="178" rx="3" fill="url(#cgrad)"/>
<text x="790.0" y="213" fill="#FFFFFF" font-size="11" text-anchor="middle" font-weight="600">1.1k</text>
<text x="790.0" y="414" fill="#8B949E" font-size="11" text-anchor="middle">Jun</text>
<line x1="34" y1="396" x2="856" y2="396" stroke="#30363D" stroke-width="1"/>
<text x="856" y="438" fill="#6E7681" font-size="9" text-anchor="end">L12M &#183; 2026-06-29</text>
</svg>